<svg xmlns="http://www.w3.org/2000/svg" xmlns:xlink="http://www.w3.org/1999/xlink" width="100" zoomAndPan="magnify" viewBox="0 0 75 74.999997" height="100" preserveAspectRatio="xMidYMid meet" version="1.0"><defs><g/><clipPath id="2809129ecf"><path d="M 24.6875 12.625 L 50.3125 12.625 L 50.3125 47.101562 L 24.6875 47.101562 Z M 24.6875 12.625 " clip-rule="nonzero"/></clipPath></defs><path fill="#211d1d" d="M 1.085938 25.933594 L 20.722656 14.140625 C 21.019531 13.976562 21.347656 13.894531 21.710938 13.894531 C 22.253906 13.894531 22.71875 14.089844 23.105469 14.472656 C 23.492188 14.859375 23.683594 15.324219 23.683594 15.867188 C 23.683594 16.574219 23.347656 17.152344 22.671875 17.59375 L 5.796875 27.710938 L 22.671875 37.824219 C 23.347656 38.269531 23.683594 38.84375 23.683594 39.550781 C 23.683594 40.09375 23.492188 40.558594 23.105469 40.945312 C 22.71875 41.332031 22.253906 41.527344 21.710938 41.527344 C 21.347656 41.527344 21.019531 41.445312 20.722656 41.28125 L 1.085938 29.488281 C 0.363281 29.027344 0 28.433594 0 27.710938 C 0 26.988281 0.363281 26.394531 1.085938 25.933594 " fill-opacity="1" fill-rule="nonzero"/><path fill="#211d1d" d="M 75 27.710938 C 75 28.433594 74.636719 29.027344 73.914062 29.488281 L 54.277344 41.28125 C 53.980469 41.445312 53.652344 41.527344 53.289062 41.527344 C 52.746094 41.527344 52.28125 41.332031 51.894531 40.945312 C 51.507812 40.558594 51.316406 40.09375 51.316406 39.550781 C 51.316406 38.84375 51.652344 38.269531 52.328125 37.824219 L 69.203125 27.710938 L 52.328125 17.59375 C 51.652344 17.152344 51.316406 16.574219 51.316406 15.867188 C 51.316406 15.324219 51.507812 14.859375 51.894531 14.472656 C 52.28125 14.089844 52.746094 13.894531 53.289062 13.894531 C 53.652344 13.894531 53.980469 13.976562 54.277344 14.140625 L 73.914062 25.933594 C 74.636719 26.394531 75 26.988281 75 27.710938 " fill-opacity="1" fill-rule="nonzero"/><g clip-path="url(#2809129ecf)"><path fill="#67c656" d="M 47.15625 26.851562 C 44.914062 30.738281 39.945312 32.070312 36.054688 29.828125 C 32.167969 27.582031 30.835938 22.609375 33.082031 18.722656 C 35.328125 14.835938 40.296875 13.503906 44.183594 15.746094 C 48.070312 17.992188 49.402344 22.960938 47.15625 26.851562 Z M 45.199219 13.988281 C 45.195312 13.984375 45.191406 13.984375 45.1875 13.980469 C 40.332031 11.183594 34.125 12.851562 31.320312 17.707031 C 28.695312 22.257812 29.988281 27.988281 34.144531 31.003906 L 32.269531 34.257812 L 31.558594 33.847656 C 31.414062 33.761719 31.226562 33.8125 31.144531 33.957031 L 24.761719 45.019531 C 24.675781 45.164062 24.726562 45.347656 24.867188 45.429688 L 28.136719 47.316406 C 28.277344 47.398438 28.464844 47.351562 28.550781 47.207031 L 34.933594 36.144531 C 35.015625 36 34.96875 35.816406 34.824219 35.730469 L 34.113281 35.320312 L 35.53125 32.859375 L 35.988281 32.066406 C 40.679688 34.164062 46.292969 32.414062 48.917969 27.867188 C 51.722656 23.007812 50.058594 16.796875 45.199219 13.988281 " fill-opacity="1" fill-rule="nonzero"/></g><path fill="#67c656" d="M 41.8125 15.828125 C 38.054688 16.535156 34.9375 18.902344 33.1875 22.101562 C 33.558594 18.707031 36.308594 15.957031 39.835938 15.699219 C 40.515625 15.648438 41.179688 15.699219 41.8125 15.828125 " fill-opacity="1" fill-rule="nonzero"/><g fill="#211d1d" fill-opacity="1"><g transform="translate(0.898753, 58.096645)"><g><path d="M 0.5625 -7.84375 L 3 -7.84375 C 3.738281 -7.84375 4.328125 -7.679688 4.765625 -7.359375 C 5.203125 -7.046875 5.421875 -6.539062 5.421875 -5.84375 C 5.421875 -5.0625 5.09375 -4.5 4.4375 -4.15625 C 5.550781 -3.957031 6.109375 -3.300781 6.109375 -2.1875 C 6.109375 -1.53125 5.878906 -1 5.421875 -0.59375 C 4.960938 -0.195312 4.335938 0 3.546875 0 L 0.5625 0 Z M 2.359375 -4.765625 L 2.5 -4.765625 C 2.894531 -4.765625 3.191406 -4.832031 3.390625 -4.96875 C 3.585938 -5.113281 3.6875 -5.34375 3.6875 -5.65625 C 3.6875 -6.1875 3.289062 -6.453125 2.5 -6.453125 L 2.359375 -6.453125 Z M 2.359375 -1.375 L 2.921875 -1.375 C 3.796875 -1.375 4.234375 -1.664062 4.234375 -2.25 C 4.234375 -2.601562 4.125 -2.851562 3.90625 -3 C 3.6875 -3.15625 3.359375 -3.234375 2.921875 -3.234375 L 2.359375 -3.234375 Z M 2.359375 -1.375 "/></g></g></g><g fill="#211d1d" fill-opacity="1"><g transform="translate(8.455529, 58.096645)"><g><path d="M 0.5625 -7.84375 L 2.84375 -7.84375 C 3.925781 -7.84375 4.851562 -7.46875 5.625 -6.71875 C 6.40625 -5.976562 6.796875 -5.046875 6.796875 -3.921875 C 6.796875 -2.796875 6.410156 -1.859375 5.640625 -1.109375 C 4.867188 -0.367188 3.9375 0 2.84375 0 L 0.5625 0 Z M 2.359375 -1.59375 L 2.625 -1.59375 C 3.28125 -1.59375 3.816406 -1.8125 4.234375 -2.25 C 4.648438 -2.695312 4.859375 -3.25 4.859375 -3.90625 C 4.859375 -4.570312 4.648438 -5.125 4.234375 -5.5625 C 3.828125 -6.007812 3.289062 -6.234375 2.625 -6.234375 L 2.359375 -6.234375 Z M 2.359375 -1.59375 "/></g></g></g><g fill="#211d1d" fill-opacity="1"><g transform="translate(16.695747, 58.096645)"><g><path d="M 3.984375 -7.84375 L 3.984375 -2.21875 C 3.984375 -1.445312 3.769531 -0.859375 3.34375 -0.453125 C 2.925781 -0.0546875 2.320312 0.140625 1.53125 0.140625 C 1.320312 0.140625 1.117188 0.113281 0.921875 0.0625 C 0.722656 0.0078125 0.550781 -0.0507812 0.40625 -0.125 C 0.269531 -0.195312 0.144531 -0.269531 0.03125 -0.34375 C -0.0820312 -0.414062 -0.160156 -0.476562 -0.203125 -0.53125 L -0.296875 -0.609375 L 0.28125 -2.09375 C 0.65625 -1.738281 0.992188 -1.5625 1.296875 -1.5625 C 1.566406 -1.5625 1.78125 -1.648438 1.9375 -1.828125 C 2.101562 -2.015625 2.1875 -2.296875 2.1875 -2.671875 L 2.1875 -7.84375 Z M 3.984375 -7.84375 "/></g></g></g><g fill="#211d1d" fill-opacity="1"><g transform="translate(22.38257, 58.096645)"><g><path d="M 0.21875 -3.921875 C 0.21875 -5.054688 0.601562 -6.015625 1.375 -6.796875 C 2.144531 -7.585938 3.078125 -7.984375 4.171875 -7.984375 C 5.265625 -7.984375 6.191406 -7.59375 6.953125 -6.8125 C 7.722656 -6.03125 8.109375 -5.066406 8.109375 -3.921875 C 8.109375 -2.773438 7.734375 -1.8125 6.984375 -1.03125 C 6.234375 -0.25 5.296875 0.140625 4.171875 0.140625 C 3.023438 0.140625 2.078125 -0.242188 1.328125 -1.015625 C 0.585938 -1.796875 0.21875 -2.765625 0.21875 -3.921875 Z M 2.140625 -3.921875 C 2.140625 -3.515625 2.203125 -3.140625 2.328125 -2.796875 C 2.460938 -2.460938 2.6875 -2.175781 3 -1.9375 C 3.320312 -1.707031 3.710938 -1.59375 4.171875 -1.59375 C 4.835938 -1.59375 5.335938 -1.816406 5.671875 -2.265625 C 6.015625 -2.722656 6.1875 -3.273438 6.1875 -3.921875 C 6.1875 -4.566406 6.015625 -5.117188 5.671875 -5.578125 C 5.328125 -6.035156 4.828125 -6.265625 4.171875 -6.265625 C 3.523438 -6.265625 3.023438 -6.035156 2.671875 -5.578125 C 2.316406 -5.117188 2.140625 -4.566406 2.140625 -3.921875 Z M 2.140625 -3.921875 "/></g></g></g><g fill="#211d1d" fill-opacity="1"><g transform="translate(31.9422, 58.096645)"><g><path d="M 0.5625 -7.84375 L 3 -7.84375 C 3.738281 -7.84375 4.328125 -7.679688 4.765625 -7.359375 C 5.203125 -7.046875 5.421875 -6.539062 5.421875 -5.84375 C 5.421875 -5.0625 5.09375 -4.5 4.4375 -4.15625 C 5.550781 -3.957031 6.109375 -3.300781 6.109375 -2.1875 C 6.109375 -1.53125 5.878906 -1 5.421875 -0.59375 C 4.960938 -0.195312 4.335938 0 3.546875 0 L 0.5625 0 Z M 2.359375 -4.765625 L 2.5 -4.765625 C 2.894531 -4.765625 3.191406 -4.832031 3.390625 -4.96875 C 3.585938 -5.113281 3.6875 -5.34375 3.6875 -5.65625 C 3.6875 -6.1875 3.289062 -6.453125 2.5 -6.453125 L 2.359375 -6.453125 Z M 2.359375 -1.375 L 2.921875 -1.375 C 3.796875 -1.375 4.234375 -1.664062 4.234375 -2.25 C 4.234375 -2.601562 4.125 -2.851562 3.90625 -3 C 3.6875 -3.15625 3.359375 -3.234375 2.921875 -3.234375 L 2.359375 -3.234375 Z M 2.359375 -1.375 "/></g></g></g><g fill="#211d1d" fill-opacity="1"><g transform="translate(39.498976, 58.096645)"><g><path d="M 3.453125 -7.984375 C 3.878906 -7.984375 4.296875 -7.921875 4.703125 -7.796875 C 5.109375 -7.671875 5.410156 -7.546875 5.609375 -7.421875 L 5.890625 -7.234375 L 5.171875 -5.8125 C 5.109375 -5.851562 5.023438 -5.898438 4.921875 -5.953125 C 4.828125 -6.015625 4.640625 -6.097656 4.359375 -6.203125 C 4.078125 -6.304688 3.816406 -6.359375 3.578125 -6.359375 C 3.285156 -6.359375 3.054688 -6.289062 2.890625 -6.15625 C 2.734375 -6.03125 2.65625 -5.863281 2.65625 -5.65625 C 2.65625 -5.539062 2.691406 -5.4375 2.765625 -5.34375 C 2.835938 -5.257812 2.960938 -5.164062 3.140625 -5.0625 C 3.328125 -4.957031 3.488281 -4.875 3.625 -4.8125 C 3.769531 -4.75 3.988281 -4.648438 4.28125 -4.515625 C 4.789062 -4.304688 5.222656 -4.015625 5.578125 -3.640625 C 5.941406 -3.273438 6.125 -2.859375 6.125 -2.390625 C 6.125 -1.929688 6.039062 -1.535156 5.875 -1.203125 C 5.71875 -0.867188 5.492188 -0.609375 5.203125 -0.421875 C 4.921875 -0.234375 4.609375 -0.09375 4.265625 0 C 3.929688 0.09375 3.5625 0.140625 3.15625 0.140625 C 2.820312 0.140625 2.488281 0.101562 2.15625 0.03125 C 1.820312 -0.03125 1.546875 -0.113281 1.328125 -0.21875 C 1.109375 -0.320312 0.910156 -0.425781 0.734375 -0.53125 C 0.554688 -0.632812 0.425781 -0.71875 0.34375 -0.78125 L 0.21875 -0.890625 L 1.109375 -2.390625 C 1.179688 -2.328125 1.285156 -2.242188 1.421875 -2.140625 C 1.554688 -2.046875 1.789062 -1.914062 2.125 -1.75 C 2.46875 -1.59375 2.769531 -1.515625 3.03125 -1.515625 C 3.78125 -1.515625 4.15625 -1.769531 4.15625 -2.28125 C 4.15625 -2.382812 4.128906 -2.484375 4.078125 -2.578125 C 4.023438 -2.671875 3.929688 -2.765625 3.796875 -2.859375 C 3.660156 -2.953125 3.539062 -3.023438 3.4375 -3.078125 C 3.332031 -3.128906 3.160156 -3.207031 2.921875 -3.3125 C 2.679688 -3.425781 2.503906 -3.515625 2.390625 -3.578125 C 1.921875 -3.804688 1.554688 -4.097656 1.296875 -4.453125 C 1.035156 -4.804688 0.90625 -5.1875 0.90625 -5.59375 C 0.90625 -6.289062 1.160156 -6.863281 1.671875 -7.3125 C 2.191406 -7.757812 2.785156 -7.984375 3.453125 -7.984375 Z M 3.453125 -7.984375 "/></g></g></g><g fill="#ff3131" fill-opacity="1"><g transform="translate(47.117499, 58.096645)"><g><path d="M 1.65625 -2.03125 C 1.957031 -2.03125 2.210938 -1.921875 2.421875 -1.703125 C 2.640625 -1.492188 2.75 -1.238281 2.75 -0.9375 C 2.75 -0.644531 2.640625 -0.390625 2.421875 -0.171875 C 2.210938 0.0351562 1.957031 0.140625 1.65625 0.140625 C 1.351562 0.140625 1.09375 0.0351562 0.875 -0.171875 C 0.664062 -0.390625 0.5625 -0.644531 0.5625 -0.9375 C 0.5625 -1.238281 0.664062 -1.492188 0.875 -1.703125 C 1.09375 -1.921875 1.351562 -2.03125 1.65625 -2.03125 Z M 1.65625 -2.03125 "/></g></g></g><g fill="#67c656" fill-opacity="1"><g transform="translate(51.676093, 58.096645)"><g><path d="M 0.5625 -7.84375 L 2.84375 -7.84375 C 3.925781 -7.84375 4.851562 -7.46875 5.625 -6.71875 C 6.40625 -5.976562 6.796875 -5.046875 6.796875 -3.921875 C 6.796875 -2.796875 6.410156 -1.859375 5.640625 -1.109375 C 4.867188 -0.367188 3.9375 0 2.84375 0 L 0.5625 0 Z M 2.359375 -1.59375 L 2.625 -1.59375 C 3.28125 -1.59375 3.816406 -1.8125 4.234375 -2.25 C 4.648438 -2.695312 4.859375 -3.25 4.859375 -3.90625 C 4.859375 -4.570312 4.648438 -5.125 4.234375 -5.5625 C 3.828125 -6.007812 3.289062 -6.234375 2.625 -6.234375 L 2.359375 -6.234375 Z M 2.359375 -1.59375 "/></g></g></g><g fill="#67c656" fill-opacity="1"><g transform="translate(59.91631, 58.096645)"><g><path d="M 5.046875 -7.84375 L 5.046875 -6.265625 L 2.359375 -6.265625 L 2.359375 -4.71875 L 4.9375 -4.71875 L 4.9375 -3.140625 L 2.359375 -3.140625 L 2.359375 -1.5625 L 5.046875 -1.5625 L 5.046875 0 L 0.5625 0 L 0.5625 -7.84375 Z M 5.046875 -7.84375 "/></g></g></g><g fill="#67c656" fill-opacity="1"><g transform="translate(66.656768, 58.096645)"><g><path d="M 3.015625 0 L -0.265625 -7.84375 L 1.75 -7.84375 L 3.71875 -2.6875 L 5.703125 -7.84375 L 7.71875 -7.84375 L 4.421875 0 Z M 3.015625 0 "/></g></g></g></svg>