<svg xmlns="http://www.w3.org/2000/svg" xmlns:xlink="http://www.w3.org/1999/xlink" width="80" zoomAndPan="magnify" viewBox="0 0 60 30.000001" height="40" preserveAspectRatio="xMidYMid meet" version="1.0"><defs><g/><clipPath id="6c53cb3e53"><path d="M 0.96875 0 L 59.03125 0 L 59.03125 29.03125 L 0.96875 29.03125 Z M 0.96875 0 " clip-rule="nonzero"/></clipPath><clipPath id="aa5c16ef39"><path d="M 12.226562 2 L 24 2 L 24 16 L 12.226562 16 Z M 12.226562 2 " clip-rule="nonzero"/></clipPath><clipPath id="12473b8b4f"><path d="M 36 2 L 47.792969 2 L 47.792969 16 L 36 16 Z M 36 2 " clip-rule="nonzero"/></clipPath><clipPath id="5890a47486"><path d="M 23.925781 1.992188 L 36.070312 1.992188 L 36.070312 18.453125 L 23.925781 18.453125 Z M 23.925781 1.992188 " clip-rule="nonzero"/></clipPath></defs><g clip-path="url(#6c53cb3e53)"><path fill="#ffffff" d="M 0.96875 0 L 59.03125 0 L 59.03125 29.03125 L 0.96875 29.03125 Z M 0.96875 0 " fill-opacity="1" fill-rule="nonzero"/><path fill="#ffffff" d="M 0.96875 0 L 59.03125 0 L 59.03125 29.03125 L 0.96875 29.03125 Z M 0.96875 0 " fill-opacity="1" fill-rule="nonzero"/></g><g clip-path="url(#aa5c16ef39)"><path fill="#211d1d" d="M 12.742188 8.300781 L 22.046875 2.710938 C 22.1875 2.632812 22.34375 2.59375 22.515625 2.59375 C 22.773438 2.59375 22.992188 2.6875 23.175781 2.867188 C 23.359375 3.050781 23.449219 3.273438 23.449219 3.53125 C 23.449219 3.863281 23.292969 4.136719 22.972656 4.347656 L 14.976562 9.140625 L 22.972656 13.933594 C 23.292969 14.144531 23.449219 14.417969 23.449219 14.753906 C 23.449219 15.011719 23.359375 15.230469 23.175781 15.414062 C 22.992188 15.597656 22.773438 15.6875 22.515625 15.6875 C 22.34375 15.6875 22.1875 15.648438 22.046875 15.570312 L 12.742188 9.984375 C 12.398438 9.765625 12.226562 9.484375 12.226562 9.140625 C 12.226562 8.796875 12.398438 8.519531 12.742188 8.300781 " fill-opacity="1" fill-rule="nonzero"/></g><g clip-path="url(#12473b8b4f)"><path fill="#211d1d" d="M 47.769531 9.140625 C 47.769531 9.484375 47.597656 9.765625 47.253906 9.984375 L 37.949219 15.570312 C 37.808594 15.648438 37.652344 15.6875 37.480469 15.6875 C 37.222656 15.6875 37.003906 15.597656 36.820312 15.414062 C 36.636719 15.230469 36.546875 15.011719 36.546875 14.753906 C 36.546875 14.417969 36.703125 14.144531 37.023438 13.933594 L 45.019531 9.140625 L 37.023438 4.347656 C 36.703125 4.136719 36.546875 3.863281 36.546875 3.53125 C 36.546875 3.273438 36.636719 3.050781 36.820312 2.867188 C 37.003906 2.6875 37.222656 2.59375 37.480469 2.59375 C 37.652344 2.59375 37.808594 2.632812 37.949219 2.710938 L 47.253906 8.300781 C 47.597656 8.519531 47.769531 8.796875 47.769531 9.140625 " fill-opacity="1" fill-rule="nonzero"/></g><g clip-path="url(#5890a47486)"><path fill="#67c656" d="M 34.574219 8.734375 C 33.511719 10.578125 31.15625 11.207031 29.3125 10.144531 C 27.472656 9.082031 26.839844 6.726562 27.902344 4.882812 C 28.96875 3.039062 31.324219 2.410156 33.164062 3.472656 C 35.007812 4.535156 35.640625 6.890625 34.574219 8.734375 Z M 33.644531 2.636719 C 33.644531 2.636719 33.644531 2.636719 33.640625 2.636719 C 31.339844 1.308594 28.398438 2.101562 27.070312 4.402344 C 25.824219 6.558594 26.4375 9.273438 28.410156 10.703125 L 27.519531 12.242188 L 27.183594 12.050781 C 27.113281 12.007812 27.027344 12.03125 26.988281 12.101562 L 23.960938 17.34375 C 23.921875 17.414062 23.945312 17.5 24.011719 17.539062 L 25.558594 18.433594 C 25.628906 18.472656 25.714844 18.449219 25.757812 18.382812 L 28.78125 13.136719 C 28.820312 13.070312 28.796875 12.980469 28.730469 12.941406 L 28.390625 12.746094 L 29.066406 11.582031 L 29.28125 11.207031 C 31.503906 12.199219 34.164062 11.371094 35.410156 9.214844 C 36.738281 6.914062 35.949219 3.96875 33.644531 2.636719 " fill-opacity="1" fill-rule="nonzero"/></g><path fill="#67c656" d="M 32.042969 3.511719 C 30.261719 3.84375 28.785156 4.96875 27.953125 6.484375 C 28.132812 4.875 29.433594 3.570312 31.105469 3.449219 C 31.425781 3.425781 31.742188 3.449219 32.042969 3.511719 " fill-opacity="1" fill-rule="nonzero"/><g fill="#211d1d" fill-opacity="1"><g transform="translate(10.008092, 24.424975)"><g><path d="M 3.640625 -1.0625 C 3.640625 -0.6875 3.476562 -0.414062 3.15625 -0.25 C 2.84375 -0.0820312 2.5 0 2.125 0 L 0.234375 0 C 0.179688 0 0.140625 -0.015625 0.109375 -0.046875 C 0.0859375 -0.0859375 0.078125 -0.128906 0.078125 -0.171875 C 0.078125 -0.222656 0.0859375 -0.265625 0.109375 -0.296875 C 0.128906 -0.335938 0.164062 -0.359375 0.21875 -0.359375 L 0.78125 -0.359375 L 0.78125 -3.203125 L 0.328125 -3.203125 C 0.285156 -3.203125 0.25 -3.21875 0.21875 -3.25 C 0.1875 -3.289062 0.171875 -3.332031 0.171875 -3.375 C 0.171875 -3.425781 0.179688 -3.46875 0.203125 -3.5 C 0.234375 -3.539062 0.273438 -3.5625 0.328125 -3.5625 L 2.03125 -3.5625 C 2.375 -3.5625 2.671875 -3.5 2.921875 -3.375 C 3.171875 -3.25 3.296875 -3.007812 3.296875 -2.65625 C 3.296875 -2.488281 3.242188 -2.347656 3.140625 -2.234375 C 3.046875 -2.117188 2.929688 -2.046875 2.796875 -2.015625 C 3.023438 -1.984375 3.222656 -1.890625 3.390625 -1.734375 C 3.554688 -1.585938 3.640625 -1.363281 3.640625 -1.0625 Z M 3.125 -1.109375 C 3.125 -1.421875 3.03125 -1.613281 2.84375 -1.6875 C 2.65625 -1.757812 2.441406 -1.796875 2.203125 -1.796875 L 1.265625 -1.796875 L 1.265625 -0.359375 L 2.125 -0.359375 C 2.414062 -0.359375 2.65625 -0.410156 2.84375 -0.515625 C 3.03125 -0.628906 3.125 -0.828125 3.125 -1.109375 Z M 2.875 -2.640625 C 2.875 -2.847656 2.796875 -2.992188 2.640625 -3.078125 C 2.492188 -3.160156 2.300781 -3.203125 2.0625 -3.203125 L 1.265625 -3.203125 L 1.265625 -2.078125 L 2.203125 -2.078125 C 2.367188 -2.078125 2.519531 -2.117188 2.65625 -2.203125 C 2.800781 -2.296875 2.875 -2.441406 2.875 -2.640625 Z M 2.875 -2.640625 "/></g></g></g><g fill="#211d1d" fill-opacity="1"><g transform="translate(14.349862, 24.424975)"><g><path d="M 3.34375 -1.796875 C 3.34375 -2.242188 3.207031 -2.585938 2.9375 -2.828125 C 2.675781 -3.078125 2.316406 -3.203125 1.859375 -3.203125 L 1.265625 -3.203125 L 1.265625 -0.359375 C 1.316406 -0.359375 1.363281 -0.359375 1.40625 -0.359375 C 1.457031 -0.359375 1.507812 -0.359375 1.5625 -0.359375 C 2.082031 -0.359375 2.507812 -0.460938 2.84375 -0.671875 C 3.175781 -0.890625 3.34375 -1.265625 3.34375 -1.796875 Z M 3.84375 -1.796875 C 3.84375 -1.210938 3.648438 -0.765625 3.265625 -0.453125 C 2.878906 -0.148438 2.394531 0 1.8125 0 L 0.234375 0 C 0.179688 0 0.140625 -0.015625 0.109375 -0.046875 C 0.0859375 -0.0859375 0.078125 -0.128906 0.078125 -0.171875 C 0.078125 -0.222656 0.0859375 -0.265625 0.109375 -0.296875 C 0.128906 -0.335938 0.164062 -0.359375 0.21875 -0.359375 L 0.78125 -0.359375 L 0.78125 -3.203125 L 0.359375 -3.203125 C 0.304688 -3.203125 0.269531 -3.21875 0.25 -3.25 C 0.226562 -3.289062 0.21875 -3.335938 0.21875 -3.390625 C 0.21875 -3.441406 0.226562 -3.484375 0.25 -3.515625 C 0.28125 -3.546875 0.316406 -3.5625 0.359375 -3.5625 L 1.8125 -3.5625 C 2.40625 -3.5625 2.890625 -3.414062 3.265625 -3.125 C 3.648438 -2.832031 3.84375 -2.390625 3.84375 -1.796875 Z M 3.84375 -1.796875 "/></g></g></g><g fill="#211d1d" fill-opacity="1"><g transform="translate(18.905887, 24.424975)"><g><path d="M 2.015625 -0.921875 C 2.015625 -0.484375 1.910156 -0.164062 1.703125 0.03125 C 1.503906 0.226562 1.253906 0.328125 0.953125 0.328125 C 0.742188 0.328125 0.5625 0.273438 0.40625 0.171875 C 0.25 0.0664062 0.171875 -0.0507812 0.171875 -0.1875 L 0.171875 -0.46875 C 0.171875 -0.550781 0.191406 -0.613281 0.234375 -0.65625 C 0.273438 -0.695312 0.335938 -0.71875 0.421875 -0.71875 C 0.484375 -0.71875 0.539062 -0.695312 0.59375 -0.65625 C 0.644531 -0.625 0.671875 -0.578125 0.671875 -0.515625 L 0.671875 -0.25 C 0.671875 -0.195312 0.703125 -0.148438 0.765625 -0.109375 C 0.828125 -0.078125 0.898438 -0.0625 0.984375 -0.0625 C 1.109375 -0.0625 1.226562 -0.117188 1.34375 -0.234375 C 1.46875 -0.347656 1.53125 -0.5625 1.53125 -0.875 L 1.53125 -3.203125 L 0.859375 -3.203125 C 0.804688 -3.203125 0.765625 -3.21875 0.734375 -3.25 C 0.710938 -3.289062 0.703125 -3.335938 0.703125 -3.390625 C 0.703125 -3.441406 0.710938 -3.484375 0.734375 -3.515625 C 0.765625 -3.546875 0.804688 -3.5625 0.859375 -3.5625 L 2.5625 -3.5625 C 2.601562 -3.5625 2.632812 -3.546875 2.65625 -3.515625 C 2.6875 -3.484375 2.703125 -3.441406 2.703125 -3.390625 C 2.703125 -3.335938 2.691406 -3.289062 2.671875 -3.25 C 2.648438 -3.21875 2.613281 -3.203125 2.5625 -3.203125 L 2.015625 -3.203125 Z M 2.015625 -0.921875 "/></g></g></g><g fill="#211d1d" fill-opacity="1"><g transform="translate(22.232544, 24.424975)"><g><path d="M 2.015625 0.046875 C 1.472656 0.046875 1.023438 -0.117188 0.671875 -0.453125 C 0.328125 -0.785156 0.15625 -1.222656 0.15625 -1.765625 C 0.15625 -2.316406 0.328125 -2.765625 0.671875 -3.109375 C 1.023438 -3.453125 1.472656 -3.625 2.015625 -3.625 C 2.566406 -3.625 3.015625 -3.453125 3.359375 -3.109375 C 3.703125 -2.765625 3.875 -2.316406 3.875 -1.765625 C 3.875 -1.222656 3.695312 -0.785156 3.34375 -0.453125 C 3 -0.117188 2.554688 0.046875 2.015625 0.046875 Z M 2 -3.234375 C 1.582031 -3.234375 1.257812 -3.09375 1.03125 -2.8125 C 0.800781 -2.539062 0.6875 -2.191406 0.6875 -1.765625 C 0.6875 -1.347656 0.800781 -1.003906 1.03125 -0.734375 C 1.269531 -0.472656 1.601562 -0.34375 2.03125 -0.34375 C 2.445312 -0.34375 2.769531 -0.472656 3 -0.734375 C 3.238281 -0.992188 3.359375 -1.335938 3.359375 -1.765625 C 3.359375 -2.191406 3.234375 -2.539062 2.984375 -2.8125 C 2.742188 -3.09375 2.414062 -3.234375 2 -3.234375 Z M 2 -3.234375 "/></g></g></g><g fill="#211d1d" fill-opacity="1"><g transform="translate(26.821851, 24.424975)"><g><path d="M 3.640625 -1.0625 C 3.640625 -0.6875 3.476562 -0.414062 3.15625 -0.25 C 2.84375 -0.0820312 2.5 0 2.125 0 L 0.234375 0 C 0.179688 0 0.140625 -0.015625 0.109375 -0.046875 C 0.0859375 -0.0859375 0.078125 -0.128906 0.078125 -0.171875 C 0.078125 -0.222656 0.0859375 -0.265625 0.109375 -0.296875 C 0.128906 -0.335938 0.164062 -0.359375 0.21875 -0.359375 L 0.78125 -0.359375 L 0.78125 -3.203125 L 0.328125 -3.203125 C 0.285156 -3.203125 0.25 -3.21875 0.21875 -3.25 C 0.1875 -3.289062 0.171875 -3.332031 0.171875 -3.375 C 0.171875 -3.425781 0.179688 -3.46875 0.203125 -3.5 C 0.234375 -3.539062 0.273438 -3.5625 0.328125 -3.5625 L 2.03125 -3.5625 C 2.375 -3.5625 2.671875 -3.5 2.921875 -3.375 C 3.171875 -3.25 3.296875 -3.007812 3.296875 -2.65625 C 3.296875 -2.488281 3.242188 -2.347656 3.140625 -2.234375 C 3.046875 -2.117188 2.929688 -2.046875 2.796875 -2.015625 C 3.023438 -1.984375 3.222656 -1.890625 3.390625 -1.734375 C 3.554688 -1.585938 3.640625 -1.363281 3.640625 -1.0625 Z M 3.125 -1.109375 C 3.125 -1.421875 3.03125 -1.613281 2.84375 -1.6875 C 2.65625 -1.757812 2.441406 -1.796875 2.203125 -1.796875 L 1.265625 -1.796875 L 1.265625 -0.359375 L 2.125 -0.359375 C 2.414062 -0.359375 2.65625 -0.410156 2.84375 -0.515625 C 3.03125 -0.628906 3.125 -0.828125 3.125 -1.109375 Z M 2.875 -2.640625 C 2.875 -2.847656 2.796875 -2.992188 2.640625 -3.078125 C 2.492188 -3.160156 2.300781 -3.203125 2.0625 -3.203125 L 1.265625 -3.203125 L 1.265625 -2.078125 L 2.203125 -2.078125 C 2.367188 -2.078125 2.519531 -2.117188 2.65625 -2.203125 C 2.800781 -2.296875 2.875 -2.441406 2.875 -2.640625 Z M 2.875 -2.640625 "/></g></g></g><g fill="#211d1d" fill-opacity="1"><g transform="translate(31.16362, 24.424975)"><g><path d="M 1.671875 -3.296875 C 1.335938 -3.296875 1.117188 -3.234375 1.015625 -3.109375 C 0.910156 -2.984375 0.859375 -2.84375 0.859375 -2.6875 C 0.859375 -2.550781 0.90625 -2.441406 1 -2.359375 C 1.09375 -2.273438 1.226562 -2.207031 1.40625 -2.15625 L 2.015625 -2.015625 C 2.285156 -1.941406 2.503906 -1.828125 2.671875 -1.671875 C 2.847656 -1.523438 2.9375 -1.285156 2.9375 -0.953125 C 2.9375 -0.597656 2.789062 -0.335938 2.5 -0.171875 C 2.21875 -0.015625 1.894531 0.0625 1.53125 0.0625 C 1.382812 0.0625 1.234375 0.0390625 1.078125 0 C 0.929688 -0.0390625 0.789062 -0.109375 0.65625 -0.203125 C 0.644531 -0.148438 0.628906 -0.09375 0.609375 -0.03125 C 0.585938 0.0195312 0.550781 0.046875 0.5 0.046875 C 0.445312 0.046875 0.40625 0.0351562 0.375 0.015625 C 0.351562 -0.00390625 0.335938 -0.0351562 0.328125 -0.078125 L 0.203125 -1.109375 C 0.203125 -1.171875 0.21875 -1.210938 0.25 -1.234375 C 0.289062 -1.265625 0.34375 -1.28125 0.40625 -1.28125 C 0.445312 -1.28125 0.484375 -1.265625 0.515625 -1.234375 C 0.546875 -1.210938 0.566406 -1.179688 0.578125 -1.140625 L 0.609375 -0.859375 C 0.617188 -0.722656 0.710938 -0.597656 0.890625 -0.484375 C 1.078125 -0.367188 1.273438 -0.3125 1.484375 -0.3125 C 1.722656 -0.3125 1.953125 -0.351562 2.171875 -0.4375 C 2.398438 -0.519531 2.515625 -0.691406 2.515625 -0.953125 C 2.515625 -1.140625 2.457031 -1.269531 2.34375 -1.34375 C 2.226562 -1.414062 2.09375 -1.476562 1.9375 -1.53125 L 1.25 -1.71875 C 1 -1.769531 0.789062 -1.867188 0.625 -2.015625 C 0.46875 -2.160156 0.390625 -2.367188 0.390625 -2.640625 C 0.390625 -2.953125 0.507812 -3.191406 0.75 -3.359375 C 0.988281 -3.535156 1.273438 -3.625 1.609375 -3.625 C 1.753906 -3.625 1.898438 -3.601562 2.046875 -3.5625 C 2.203125 -3.53125 2.332031 -3.472656 2.4375 -3.390625 C 2.4375 -3.441406 2.453125 -3.492188 2.484375 -3.546875 C 2.523438 -3.597656 2.570312 -3.625 2.625 -3.625 C 2.664062 -3.625 2.703125 -3.609375 2.734375 -3.578125 C 2.765625 -3.554688 2.785156 -3.523438 2.796875 -3.484375 L 2.8125 -2.65625 C 2.8125 -2.59375 2.789062 -2.546875 2.75 -2.515625 C 2.71875 -2.492188 2.671875 -2.484375 2.609375 -2.484375 C 2.566406 -2.484375 2.53125 -2.492188 2.5 -2.515625 C 2.46875 -2.535156 2.445312 -2.566406 2.4375 -2.609375 L 2.4375 -2.859375 C 2.414062 -3.015625 2.328125 -3.125 2.171875 -3.1875 C 2.015625 -3.257812 1.847656 -3.296875 1.671875 -3.296875 Z M 1.671875 -3.296875 "/></g></g></g><g fill="#ff3131" fill-opacity="1"><g transform="translate(34.864484, 24.424975)"><g><path d="M 0.84375 0.265625 C 0.71875 0.265625 0.613281 0.222656 0.53125 0.140625 C 0.445312 0.0546875 0.40625 -0.046875 0.40625 -0.171875 C 0.40625 -0.296875 0.445312 -0.398438 0.53125 -0.484375 C 0.613281 -0.566406 0.71875 -0.609375 0.84375 -0.609375 C 0.96875 -0.609375 1.070312 -0.566406 1.15625 -0.484375 C 1.238281 -0.398438 1.28125 -0.296875 1.28125 -0.171875 C 1.28125 -0.046875 1.238281 0.0546875 1.15625 0.140625 C 1.070312 0.222656 0.96875 0.265625 0.84375 0.265625 Z M 0.84375 0.265625 "/></g></g></g><g fill="#67c656" fill-opacity="1"><g transform="translate(37.09995, 24.424975)"><g><path d="M 3.34375 -1.796875 C 3.34375 -2.242188 3.207031 -2.585938 2.9375 -2.828125 C 2.675781 -3.078125 2.316406 -3.203125 1.859375 -3.203125 L 1.265625 -3.203125 L 1.265625 -0.359375 C 1.316406 -0.359375 1.363281 -0.359375 1.40625 -0.359375 C 1.457031 -0.359375 1.507812 -0.359375 1.5625 -0.359375 C 2.082031 -0.359375 2.507812 -0.460938 2.84375 -0.671875 C 3.175781 -0.890625 3.34375 -1.265625 3.34375 -1.796875 Z M 3.84375 -1.796875 C 3.84375 -1.210938 3.648438 -0.765625 3.265625 -0.453125 C 2.878906 -0.148438 2.394531 0 1.8125 0 L 0.234375 0 C 0.179688 0 0.140625 -0.015625 0.109375 -0.046875 C 0.0859375 -0.0859375 0.078125 -0.128906 0.078125 -0.171875 C 0.078125 -0.222656 0.0859375 -0.265625 0.109375 -0.296875 C 0.128906 -0.335938 0.164062 -0.359375 0.21875 -0.359375 L 0.78125 -0.359375 L 0.78125 -3.203125 L 0.359375 -3.203125 C 0.304688 -3.203125 0.269531 -3.21875 0.25 -3.25 C 0.226562 -3.289062 0.21875 -3.335938 0.21875 -3.390625 C 0.21875 -3.441406 0.226562 -3.484375 0.25 -3.515625 C 0.28125 -3.546875 0.316406 -3.5625 0.359375 -3.5625 L 1.8125 -3.5625 C 2.40625 -3.5625 2.890625 -3.414062 3.265625 -3.125 C 3.648438 -2.832031 3.84375 -2.390625 3.84375 -1.796875 Z M 3.84375 -1.796875 "/></g></g></g><g fill="#67c656" fill-opacity="1"><g transform="translate(41.655975, 24.424975)"><g><path d="M 2.421875 -1.359375 C 2.421875 -1.304688 2.40625 -1.265625 2.375 -1.234375 C 2.351562 -1.203125 2.316406 -1.1875 2.265625 -1.1875 C 2.222656 -1.1875 2.1875 -1.195312 2.15625 -1.21875 C 2.132812 -1.25 2.117188 -1.285156 2.109375 -1.328125 L 2 -1.71875 L 1.296875 -1.71875 L 1.296875 -0.359375 L 3.140625 -0.359375 L 3.390625 -1.046875 C 3.398438 -1.097656 3.421875 -1.140625 3.453125 -1.171875 C 3.492188 -1.203125 3.539062 -1.21875 3.59375 -1.21875 C 3.644531 -1.21875 3.679688 -1.203125 3.703125 -1.171875 C 3.734375 -1.140625 3.75 -1.101562 3.75 -1.0625 C 3.75 -1.039062 3.75 -1.023438 3.75 -1.015625 C 3.75 -1.003906 3.742188 -0.992188 3.734375 -0.984375 L 3.609375 -0.15625 C 3.597656 -0.113281 3.578125 -0.078125 3.546875 -0.046875 C 3.523438 -0.015625 3.488281 0 3.4375 0 L 0.234375 0 C 0.179688 0 0.140625 -0.015625 0.109375 -0.046875 C 0.0859375 -0.0859375 0.078125 -0.128906 0.078125 -0.171875 C 0.078125 -0.222656 0.0859375 -0.265625 0.109375 -0.296875 C 0.128906 -0.335938 0.164062 -0.359375 0.21875 -0.359375 L 0.8125 -0.359375 L 0.8125 -3.203125 L 0.4375 -3.203125 C 0.382812 -3.203125 0.347656 -3.21875 0.328125 -3.25 C 0.304688 -3.289062 0.296875 -3.335938 0.296875 -3.390625 C 0.296875 -3.441406 0.304688 -3.484375 0.328125 -3.515625 C 0.359375 -3.546875 0.394531 -3.5625 0.4375 -3.5625 L 3.34375 -3.5625 C 3.394531 -3.5625 3.429688 -3.546875 3.453125 -3.515625 C 3.484375 -3.492188 3.503906 -3.457031 3.515625 -3.40625 L 3.71875 -2.75 C 3.726562 -2.726562 3.734375 -2.710938 3.734375 -2.703125 C 3.734375 -2.691406 3.734375 -2.679688 3.734375 -2.671875 C 3.734375 -2.617188 3.71875 -2.578125 3.6875 -2.546875 C 3.664062 -2.523438 3.628906 -2.515625 3.578125 -2.515625 C 3.523438 -2.515625 3.476562 -2.53125 3.4375 -2.5625 C 3.40625 -2.59375 3.382812 -2.628906 3.375 -2.671875 L 3.140625 -3.203125 L 1.296875 -3.203125 L 1.296875 -2.015625 L 2 -2.015625 L 2.109375 -2.40625 C 2.117188 -2.4375 2.132812 -2.46875 2.15625 -2.5 C 2.1875 -2.53125 2.222656 -2.546875 2.265625 -2.546875 C 2.316406 -2.546875 2.351562 -2.53125 2.375 -2.5 C 2.40625 -2.46875 2.421875 -2.425781 2.421875 -2.375 L 2.390625 -1.875 Z M 2.421875 -1.359375 "/></g></g></g><g fill="#67c656" fill-opacity="1"><g transform="translate(46.122554, 24.424975)"><g><path d="M 3.828125 -3.390625 C 3.828125 -3.335938 3.816406 -3.289062 3.796875 -3.25 C 3.773438 -3.21875 3.738281 -3.203125 3.6875 -3.203125 L 3.328125 -3.203125 L 2.1875 -0.0625 C 2.15625 -0.0078125 2.125 0.03125 2.09375 0.0625 C 2.070312 0.09375 2.035156 0.109375 1.984375 0.109375 C 1.929688 0.109375 1.890625 0.09375 1.859375 0.0625 C 1.828125 0.03125 1.804688 -0.0078125 1.796875 -0.0625 L 0.625 -3.203125 L 0.1875 -3.203125 C 0.132812 -3.203125 0.0976562 -3.21875 0.078125 -3.25 C 0.0546875 -3.289062 0.046875 -3.335938 0.046875 -3.390625 C 0.046875 -3.441406 0.0546875 -3.484375 0.078125 -3.515625 C 0.109375 -3.546875 0.144531 -3.5625 0.1875 -3.5625 L 1.46875 -3.5625 C 1.519531 -3.5625 1.554688 -3.546875 1.578125 -3.515625 C 1.609375 -3.484375 1.625 -3.441406 1.625 -3.390625 C 1.625 -3.335938 1.613281 -3.289062 1.59375 -3.25 C 1.570312 -3.21875 1.535156 -3.203125 1.484375 -3.203125 L 1.140625 -3.203125 L 2.046875 -0.6875 L 2.90625 -3.203125 L 2.5625 -3.203125 C 2.507812 -3.203125 2.46875 -3.21875 2.4375 -3.25 C 2.414062 -3.289062 2.40625 -3.335938 2.40625 -3.390625 C 2.40625 -3.441406 2.421875 -3.484375 2.453125 -3.515625 C 2.484375 -3.546875 2.519531 -3.5625 2.5625 -3.5625 L 3.671875 -3.5625 C 3.722656 -3.5625 3.757812 -3.546875 3.78125 -3.515625 C 3.8125 -3.484375 3.828125 -3.441406 3.828125 -3.390625 Z M 3.828125 -3.390625 "/></g></g></g></svg>